<svg xmlns="http://www.w3.org/2000/svg" width="200" height="200" viewBox="0 0 200 200" role="img">
<path d="M100 5C155 5 190 39 190 96c0 56-36 91-90 91S10 152 10 96C10 39 45 5 100 5z" fill="#fffaf0" stroke="#173b2a" stroke-width="8"/>
<path d="M28 144q72 50 144 0" fill="#493551" opacity=".34"/>
<circle cx="100" cy="92" r="61" fill="#493551" opacity=".82"/>
<path d="M62 67l28 12M138 67l-28 12" stroke="#173b2a" stroke-width="9" stroke-linecap="round"/><circle cx="82" cy="84" r="6" fill="#fffaf0"/><circle cx="118" cy="84" r="6" fill="#fffaf0"/><path d="M76 121q24-20 48 0" fill="none" stroke="#173b2a" stroke-width="9"/><path d="M32 70L12 54l24-8-8-24 24 12M168 70l20-16-24-8 8-24-24 12" fill="none" stroke="#f2c14e" stroke-width="8"/>
</svg>