<svg xmlns="http://www.w3.org/2000/svg" width="200" height="200" viewBox="0 0 200 200" role="img">
<path d="M100 5C155 5 190 39 190 96c0 56-36 91-90 91S10 152 10 96C10 39 45 5 100 5z" fill="#fffaf0" stroke="#173b2a" stroke-width="8"/>
<path d="M28 144q72 50 144 0" fill="#b7d874" opacity=".34"/>
<circle cx="100" cy="92" r="61" fill="#b7d874" opacity=".82"/>
<path d="M68 73l12-8 12 8-12 8zM108 73l12-8 12 8-12 8z" fill="#173b2a"/><path d="M75 113q25 18 50 0" fill="none" stroke="#173b2a" stroke-width="8" stroke-linecap="round"/><path d="M92 38l8-18 8 18 20-3-12 16 9 18-25-9-25 9 9-18-12-16z" fill="#f2c14e" stroke="#173b2a" stroke-width="5"/>
</svg>